<?xml version="1.0" encoding="UTF-8" standalone="no"?>
<svg
   xmlns:dc="http://purl.org/dc/elements/1.1/"
   xmlns:cc="http://creativecommons.org/ns#"
   xmlns:rdf="http://www.w3.org/1999/02/22-rdf-syntax-ns#"
   xmlns:svg="http://www.w3.org/2000/svg"
   xmlns="http://www.w3.org/2000/svg"
   viewBox="0 0 360 150.66667"
   height="150.66667"
   width="360"
   xml:space="preserve"
   id="svg2"
   version="1.1"><metadata
     id="metadata8"><rdf:RDF><cc:Work
         rdf:about=""><dc:format>image/svg+xml</dc:format><dc:type
           rdf:resource="http://purl.org/dc/dcmitype/StillImage" /></cc:Work></rdf:RDF></metadata><defs
     id="defs6" /><g
     transform="matrix(1.3333333,0,0,-1.3333333,0,150.66667)"
     id="g10"><g
       transform="scale(0.1)"
       id="g12"><path
         id="path14"
         style="fill:#57545e;fill-opacity:1;fill-rule:evenodd;stroke:none"
         d="m 1174.92,696.91 c -3.08,9.539 -8.44,17.469 -16.01,23.871 l -2.15,1.797 c -2.85,2.152 -7.11,5.703 -12.81,10.66 L 1387.54,1130 H 0 L 142.809,897.461 c -10.469,-11.68 -16.829,-31.723 -19.258,-60.231 0,-0.71 0,-1.41 0,-2.109 V 760.66 c -1.172,-18.512 3.828,-34.41 15,-47.73 12.07,-13.75 27.539,-20.739 46.289,-20.981 h 2.148 c -17.808,-82.89 -22.808,-183.16 -15,-300.969 2.621,-46.019 31.723,-73.71 87.274,-82.968 3.547,-0.242 24.918,-1.641 64.097,-4.262 39.18,-2.621 75.743,-5.121 109.731,-7.5 13.98,-13.051 30.109,-20.629 48.39,-22.77 2.149,-0.468 4.18,-0.589 6.098,-0.39 h 22.774 c 1.679,-0.199 3.437,-0.36 5.347,-0.36 3.563,0 7.11,0.282 10.672,0.75 L 693.75,1.01953 847.27,250.66 c 14.25,2.86 26.832,8.09 37.769,15.668 9.961,0.973 18.75,4.531 26.332,10.703 10.231,8.047 16.399,18.278 18.551,30.629 l 57.308,8.199 c 8.551,-5.937 18.04,-8.91 28.47,-8.91 h 60.24 c 18.47,-0.969 35.58,8.789 51.25,29.223 8.08,1.129 15.31,4.027 21.76,8.519 L 1184.18,370 c 13.32,9.73 20.43,23.012 21.37,39.84 v 4.648 c 0.97,12.582 0.11,48.09 -2.5,106.492 -2.62,58.399 -11.72,116.129 -27.39,173.079 l -0.74,2.851" /><path
         id="path16"
         style="fill:#000000;fill-opacity:1;fill-rule:evenodd;stroke:none"
         d="m 248.199,920.941 c 7.852,0 13.09,-0.121 15.711,-0.351 4.25,0 8.43,-0.238 12.461,-0.711 17.109,18.992 34.41,32.031 51.988,39.18 17.813,6.882 28.75,10.32 32.77,10.32 l 234.691,43.081 c 0.739,0.27 1.41,0.39 2.149,0.39 30.621,4.03 57.691,6.02 81.172,6.02 37.308,-0.94 59.961,-4.14 68.05,-9.61 0,0 0.11,0 0.348,0 C 789.57,987.191 848.012,947.422 922.77,889.961 997.578,832.5 1059.3,783.828 1107.97,743.949 l 215.47,350.071 H 64.4492 L 178.09,908.828 c 15.89,8.082 39.25,12.113 70.109,12.113" /><path
         id="path18"
         style="fill:#000000;fill-opacity:1;fill-rule:evenodd;stroke:none"
         d="m 793.828,265.621 c -13.047,0.981 -26.949,11.289 -41.68,30.981 -16.597,-1.872 -34.296,-2.813 -53.046,-2.813 -31.09,0.699 -50.231,1.641 -57.34,2.813 -17.352,1.449 -44.262,3.32 -80.821,5.699 -2.39,-1.641 -4.769,-3.199 -7.113,-4.641 L 693.75,70.1211 812.699,263.121 c -9.687,0.981 -16.019,1.801 -18.871,2.5" /><path
         id="path20"
         style="fill:#ffffff;fill-opacity:1;fill-rule:evenodd;stroke:none"
         d="m 240.391,834.41 c 4.058,1.879 9.379,2.969 16.058,3.168 1.871,0 3.672,-0.078 5.313,-0.348 -6.41,-18.281 -13.563,-42.109 -21.371,-71.57 v 68.75 m 901.059,-150.66 -0.71,2.852 c -0.97,2.617 -2.5,4.878 -4.65,6.757 l -2.11,1.801 c -7.14,6.168 -36.48,29.879 -88,71.211 -51.761,41.559 -107.66,85 -167.699,130.348 -60.351,45.121 -106.992,76.211 -140,93.32 -3.082,3.551 -22.66,6.051 -58.75,7.461 -22.543,0 -48.793,-1.879 -78.711,-5.66 -0.23,0 -0.59,0 -1.05,0 L 365.039,948.359 c -2.617,0.27 -12.699,-3.199 -30.269,-10.308 -17.579,-7.11 -33.829,-21.02 -48.79,-41.68 -6.41,1.867 -13.64,2.848 -21.718,2.848 h -0.711 c -1.91,0.23 -6.91,0.351 -14.961,0.351 -45.86,-2.851 -69.102,-8.199 -69.84,-16.05 -8.52,-2.821 -14.801,-18.598 -18.828,-47.348 -0.274,-0.231 -0.274,-0.473 0,-0.703 v -75.86 c -1.684,-5.699 0.348,-13.32 6.058,-22.769 4.961,-5.711 11.36,-8.559 19.219,-8.559 1.172,0 5.821,0 13.86,0 7.851,0 12.5,0 13.91,0 8.32,0.239 15.082,2.739 20.312,7.457 -0.472,-1.437 -0.82,-2.847 -1.09,-4.258 -23.711,-85 -31.679,-197.531 -23.832,-337.652 -0.98,-25.387 16.84,-41.918 53.403,-49.488 l 3.199,-0.36 c 54.84,-3.55 116.488,-7.73 184.84,-12.46 8.09,-11.641 20.199,-18.981 36.328,-22.071 0.473,0 1.062,0 1.801,0 h 24.179 c 0.743,-0.269 2.032,-0.39 3.942,-0.39 13.289,-0.231 25.859,5 37.777,15.671 41.293,-2.82 71.332,-4.96 90.082,-6.371 5.699,-0.98 24.211,-1.91 55.539,-2.89 18.563,0 35.981,1.09 52.391,3.242 l 12.461,1.801 c 6.64,-17.352 18.039,-28.524 34.179,-33.524 2.61,-0.937 10.469,-1.636 23.508,-2.109 0,-0.27 0,-0.27 0,0 18.524,0 33.364,4.262 44.492,12.781 1.68,1.211 2.899,2.61 3.559,4.289 0.27,0 0.742,0.821 1.441,2.5 l 5.711,-1.437 c 1.168,-0.473 2.379,-0.59 3.547,-0.313 3.09,0 6.063,0.93 8.91,2.813 3.321,3.078 5.122,6.867 5.352,11.398 v 22.43 l 104.691,15 c 2.149,-2.891 4.649,-5.512 7.499,-7.86 2.61,-2.14 5.58,-3.199 8.9,-3.199 h 59.85 c 7.34,-3.551 16.6,5.078 27.77,25.981 l 18.17,2.886 c 2.34,0.192 4.49,1.051 6.4,2.461 l 35.24,24.922 c 3.82,2.848 5.82,6.641 6.05,11.41 l 0.39,4.61 c 0.66,7.847 0,40.621 -2.15,98.32 -2.38,57.688 -11.17,114.328 -26.36,169.879" /><path
         id="path22"
         style="fill:#ae1e23;fill-opacity:1;fill-rule:evenodd;stroke:none"
         d="m 370.039,530.941 c -49.879,0 -86.211,-0.121 -108.988,-0.32 2.39,-9.531 5.937,-23.859 10.668,-43.121 4.761,-18.98 9.019,-35.859 12.851,-50.59 17.539,-0.66 53.399,-1.871 107.539,-3.551 53.911,-1.879 96.411,-2.929 127.5,-3.199 2.852,8.32 8.551,23.039 17.071,44.18 8.32,20.89 17.031,39.64 26.019,56.281 -14.969,0 -40.711,0.117 -77.269,0.32 -36.559,0 -75.039,0 -115.391,0" /><path
         id="path24"
         style="fill:#ae1e23;fill-opacity:1;fill-rule:evenodd;stroke:none"
         d="m 750.039,942.301 370.741,-272.77 c 8.32,-30.66 14.26,-63.16 17.81,-97.621 L 809.141,730.738 750.039,942.301 M 784.57,731.84 c -9.961,-33.25 -23.519,-61.25 -40.59,-84.07 -16.871,-23.04 -26.25,-35.04 -28.121,-35.969 -27.539,-18.051 -42.269,-23.129 -44.14,-15.321 -3.36,57.7 -1.098,116.961 6.761,177.739 7.571,60.781 12.18,93.551 13.86,98.281 8.09,41.559 16.14,66.02 24.219,73.359 8.089,7.582 12.461,10.352 13.171,8.2 l 47.379,-157.77 c 9.493,-45.117 11.993,-66.598 7.461,-64.449 M 597.23,565.512 H 288.828 L 560.941,886.41 v -62.699 c -3.089,-5.473 0.579,-10.941 11.047,-16.371 h 27.391 c 4.531,-1.91 9.019,1.762 13.551,11.019 v 89.411 c -2.149,8.281 10.82,9.5 38.832,3.558 2.617,0.703 8.629,-5.816 18.16,-19.566 -10.703,-71.492 -18.633,-157.461 -23.871,-257.852 -0.27,-2.621 -5,-13.68 -14.25,-33.172 C 622.77,581.52 611.25,569.801 597.23,565.512 M 622.891,432.66 c 2.379,-3.09 -2.34,-6.058 -14.262,-8.871 l -85.82,1.762 c -33.469,0.23 -80.508,1.398 -141.047,3.551 -60.551,1.918 -94.102,2.968 -100.782,3.199 h -43.089 c -8.051,2.39 -11.172,4.73 -9.262,7.148 l -1.051,34.18 c 1.871,8.281 3.793,11.371 5.703,9.223 h 13.867 c 15.473,-1.641 23.282,-5.313 23.512,-11.012 -9.019,36.558 -14.211,57.691 -15.66,63.39 27.301,0.239 65.621,0.36 115.039,0.36 49.371,0 94.609,-0.121 135.699,-0.36 41.063,0 62.782,0 65.16,0 -10.699,-17.808 -21.128,-39.761 -31.328,-65.89 3.321,4.762 10.782,7.5 22.418,8.199 h 51.641 c 3.832,2.383 7.582,-1.328 11.41,-11.019 l -2.148,-33.86 M 295.59,861.48 c 41.558,17.309 116.129,34.032 223.672,50.2 L 237.891,576.172 c -2.153,3.828 -3.551,9.418 -4.262,16.758 l -0.348,1.8 c 8.559,71.442 19.688,130.93 33.481,178.391 13.976,47.27 23.629,76.719 28.828,88.359 M 552.031,914.879 256.051,565.512 H 255 c -0.699,-0.473 -3.91,0.468 -9.609,2.847 L 534.922,913.48 c 5.699,0.469 11.406,0.93 17.109,1.399 M 1154.3,484.301 c -6.45,-2.391 -12.97,-4.61 -19.61,-6.762 -6.41,-1.918 -13.44,-3.559 -21.02,-5 -7.62,-1.168 -15.58,-1.758 -23.87,-1.758 -8.55,0.239 -17.1,1.641 -25.66,4.258 -8.52,2.383 -16.48,5.941 -23.83,10.699 -7.58,4.961 -14.26,10.551 -19.96,16.723 -5.94,6.168 -11.13,12.699 -15.66,19.57 -2.15,3.36 -4.26,6.797 -6.409,10.348 -0.472,1.172 -0.98,2.109 -1.441,2.851 l -1.41,2.5 -1.09,2.469 -1.41,2.531 c -3.09,6.18 -6.641,11.719 -10.7,16.719 -4.261,5 -8.992,9.141 -14.218,12.461 -5.473,3.32 -11.41,5.36 -17.813,6.059 -6.41,0.941 -12.929,0.742 -19.609,-0.699 -6.371,-1.18 -12.82,-3.129 -19.219,-5.711 -12.582,-5.7 -23.992,-12.34 -34.18,-19.918 -10.429,-7.852 -19.73,-15.59 -27.781,-23.161 -8.32,-7.859 -15.539,-15.199 -21.711,-22.109 -5.937,-6.641 -11.058,-12.582 -15.32,-17.82 -4.289,-5.192 -7.379,-9.25 -9.258,-12.071 -2.141,-2.851 -3.199,-4.289 -3.199,-4.289 l -1.094,0.7 c 0,0 1.094,1.449 3.203,4.3 2.149,2.848 5.239,6.989 9.258,12.457 3.832,5.192 8.672,11.403 14.609,18.512 5.942,7.11 12.731,14.961 20.313,23.52 7.578,8.32 16.367,16.84 26.367,25.66 9.723,8.75 20.973,16.961 33.832,24.57 6.399,3.559 13.281,6.488 20.621,8.871 7.617,2.617 15.668,3.949 24.258,3.949 8.512,0 16.949,-1.679 25.231,-5 8.128,-3.601 15.468,-8.32 22.109,-14.261 6.171,-5.668 11.761,-11.989 16.761,-18.867 l 3.2,-4.614 1.76,-2.148 c 0.47,-0.738 0.94,-1.399 1.45,-2.141 2.11,-2.347 4.25,-4.89 6.36,-7.5 9.54,-9.969 19.38,-16.84 29.61,-20.629 5.24,-1.871 10.2,-2.968 14.93,-3.199 2.38,0 4.76,0.109 7.1,0.348 2.43,0.23 4.77,0.582 7.15,1.051 4.53,0.98 8.91,2.5 13.17,4.652 4.29,1.879 8.32,4.137 12.11,6.758 7.38,5.23 13.79,10.66 19.22,16.371 2.89,2.609 5.35,5.23 7.5,7.847 2.38,2.622 4.41,5.082 6.05,7.5 0.98,1.403 2.15,3.282 3.59,5.661 -3.82,40.16 -10.82,77.781 -21.01,112.929 l -0.74,2.5 -2.15,1.762 c -7.11,6.172 -36.29,29.922 -87.62,71.25 -51.48,41.289 -107.07,84.379 -166.64,129.262 -59.84,44.879 -105.899,75.617 -138.2,92.218 -0.242,2.622 -17.781,4.77 -52.699,6.45 -22.07,0 -47.73,-1.91 -76.953,-5.7 H 602.27 L 367.191,934.102 c -2.621,0.277 -12.703,-3.442 -30.281,-11.012 -17.34,-7.352 -32.031,-22.07 -44.18,-44.18 -7.808,3.551 -17.652,5.469 -29.531,5.699 -2.148,0.469 -12.847,0.469 -32.07,0 -18.981,-0.699 -33.359,-4.839 -43.078,-12.461 -4.071,2.622 -8.789,-9.726 -14.262,-37.027 v -76.57 c -2.848,-5.231 0.941,-10.582 11.41,-16.012 h 27.071 c 4.492,-2.148 9.019,1.41 13.511,10.66 v 89.379 c 3.09,8.551 21.25,9.883 54.489,3.902 -9.719,-24.64 -21.129,-64.101 -34.18,-118.199 -23.512,-84.062 -31.36,-195.312 -23.512,-333.711 -2.109,-17.34 11.051,-29.34 39.57,-35.98 l 3.551,-0.391 c 43.68,-2.808 107.66,-7.109 191.961,-12.769 6.168,-11.41 16.129,-18.668 29.918,-21.758 H 512.5 c 4.488,-4.262 16.371,0.976 35.59,15.668 44.41,-3.09 76.711,-5.32 96.91,-6.762 4.488,-0.937 22.539,-1.879 54.102,-2.848 18.046,0 34.918,0.969 50.589,2.848 l 23.86,3.594 c 5,-18.281 14.109,-30.082 27.429,-35.274 8.79,-5.238 27.649,-2.617 56.598,7.813 0.274,0.269 2.262,4.301 6.094,12.109 l 16.719,-4.261 v 34.89 l 126.409,18.16 c 2.42,-4.961 5.5,-8.988 9.29,-12.07 h 59.85 c 3.08,-4.059 8.44,4.141 16.01,24.57 l 27.78,3.911 35.23,24.921 0.39,5 c 0.47,4.957 0.08,27.77 -1.05,68.36" /><path
         id="path26"
         style="fill:#ffffff;fill-opacity:1;fill-rule:evenodd;stroke:none"
         d="m 871.84,391.371 c -1.18,-35.633 -8.641,-55.121 -22.43,-58.402 -13.789,3.281 -21.25,22.769 -22.461,58.402 1.211,35.578 8.672,55.078 22.461,58.399 13.789,-3.321 21.25,-22.821 22.43,-58.399" /><path
         id="path28"
         style="fill:#ffffff;fill-opacity:1;fill-rule:evenodd;stroke:none"
         d="m 1092.66,409.84 c -0.47,-20.621 -3.21,-31.91 -8.21,-33.82 -4.72,1.91 -7.34,13.199 -7.81,33.82 0.47,20.711 3.09,31.961 7.81,33.871 5,-1.91 7.74,-13.16 8.21,-33.871" /><path
         id="path30"
         style="fill:#ae1e23;fill-opacity:1;fill-rule:evenodd;stroke:none"
         d="m 1082.34,409.84 c 0,14.73 1.18,24.609 3.56,29.609 -0.47,0.942 -1.06,1.41 -1.8,1.41 -3.08,-1.91 -4.76,-12.23 -4.96,-31.019 0.2,-18.942 1.88,-29.41 4.96,-31.32 0.74,0 1.33,0.46 1.8,1.441 -2.38,4.961 -3.56,14.961 -3.56,29.879" /><path
         id="path32"
         style="fill:#ffffff;fill-opacity:1;fill-rule:evenodd;stroke:none"
         d="m 291.328,479.301 5.313,-18.129 c 8.089,-4.024 41.211,-10.121 99.379,-18.16 1.91,0 14.601,0.937 38.121,2.808 23.519,2.149 47.031,5.352 70.507,9.649 l 9.614,21.722 -222.934,2.11" /><path
         id="path34"
         style="fill:#ae1e23;fill-opacity:1;fill-rule:evenodd;stroke:none"
         d="m 235.43,458.281 c 0.699,-11.371 5.308,-17.543 13.871,-18.48 8.551,0.937 13.32,7.109 14.25,18.48 -0.93,11.641 -5.699,17.93 -14.25,18.91 -8.563,-1.171 -13.172,-7.461 -13.871,-18.91" /><path
         id="path36"
         style="fill:#ae1e23;fill-opacity:1;fill-rule:evenodd;stroke:none"
         d="m 597.621,450.82 c -1.172,-13.281 -7.973,-20.55 -20.32,-21.718 -12.571,1.168 -19.449,8.437 -20.66,21.718 1.211,13.282 8.089,20.551 20.66,21.719 12.347,-1.168 19.148,-8.437 20.32,-21.719" /><path
         id="path38"
         style="fill:#ae1e23;fill-opacity:1;fill-rule:evenodd;stroke:none"
         d="m 840.16,391.371 c 0.461,27.07 4.961,44.02 13.512,50.899 -1.172,0.742 -2.383,1.089 -3.551,1.089 -10.43,-3.089 -16.141,-20.429 -17.109,-51.988 0.968,-31.601 6.679,-48.91 17.109,-52.031 1.168,0 2.379,0.39 3.551,1.09 -8.551,6.871 -13.051,23.871 -13.512,50.941" /><path
         id="path40"
         style="fill:#af2023;fill-opacity:1;fill-rule:nonzero;stroke:none"
         d="m 1439.14,795.23 c -17.19,0 -31.25,-7.929 -42.19,-23.75 -10.93,-15.742 -16.4,-35 -16.4,-57.808 0,-26.684 6.91,-49.531 20.78,-68.594 13.83,-19.058 30.04,-28.598 48.59,-28.598 17.27,0 31.45,8.129 42.5,24.379 11.02,16.332 16.56,35.86 16.56,58.59 0,26.332 -6.99,48.91 -20.93,67.66 -13.99,18.75 -30.28,28.121 -48.91,28.121 z m 5.47,19.071 c 29.26,0 54.3,-10.629 75.16,-31.879 20.82,-21.172 31.25,-46.524 31.25,-76.094 0,-29.918 -10.24,-55.547 -30.63,-76.879 -20.31,-21.359 -45.27,-32.027 -74.84,-32.027 -29.61,0 -54.81,10.668 -75.63,32.027 -20.86,21.332 -31.25,46.961 -31.25,76.879 0,30.313 10.04,55.863 30.16,76.723 20.19,20.82 45.47,31.25 75.78,31.25 z m 282.15,0.469 c 22.81,0 38.75,-8.211 47.81,-24.54 9.14,-16.25 13.75,-42.609 13.75,-79.058 v -44.371 c 0,-18.871 1.29,-33.36 3.91,-43.442 0.62,-2.308 4.84,-4.531 12.65,-6.718 7.82,-2.11 13.36,-3.121 16.72,-3.121 0.94,0 1.56,-2 1.88,-5.942 0.31,-3.867 0.15,-6.558 -0.47,-8.129 -32.62,1.571 -50,2.352 -52.19,2.352 -0.74,0 -17.89,-0.781 -51.41,-2.352 -1.25,1.25 -1.87,3.91 -1.87,7.973 0,4.058 0.62,6.098 1.87,6.098 3.95,0 9.42,1.011 16.41,3.121 6.95,2.187 10.82,4.41 11.56,6.718 2.19,9.371 3.28,20.782 3.28,34.219 v 48.75 c 0,30.313 -3.9,50.973 -11.71,62.031 -7.82,11.02 -20.47,16.563 -37.97,16.563 -10.43,0 -20.47,-3.871 -30.16,-11.563 -9.61,-7.621 -14.37,-14.488 -14.37,-20.629 v -85.929 c 0,-18.871 1.28,-33.36 3.9,-43.442 0.7,-2.308 5,-4.531 12.81,-6.718 7.82,-2.11 13.32,-3.121 16.57,-3.121 0.93,0 1.56,-2 1.87,-5.942 0.31,-3.867 0.16,-6.558 -0.47,-8.129 -32.5,1.571 -49.92,2.352 -52.18,2.352 -2,0 -19.77,-0.781 -53.29,-2.352 -1.25,1.25 -1.87,3.91 -1.87,7.973 0,4.058 0.62,6.098 1.87,6.098 3.95,0 9.73,1.011 17.35,3.121 7.69,2.187 11.87,4.41 12.5,6.718 2.26,9.371 3.44,20.782 3.44,34.219 v 92.192 c 0,12.691 -2.31,21.48 -6.88,26.402 -3.24,3.828 -7.27,6.488 -12.03,7.969 -4.69,1.558 -8.59,2.339 -11.72,2.339 -3.05,0 -4.53,0.321 -4.53,0.942 0,7.808 0.94,11.879 2.81,12.187 34.57,5.192 57.07,9.411 67.5,12.661 0.31,0 0.78,0.031 1.41,0.152 0.62,0.199 0.94,0.308 0.94,0.308 1.32,0 2.18,-1.402 2.5,-4.21 0.31,-2.739 0.31,-4.692 0,-5.942 -1.37,-9.18 -2.04,-15.699 -2.04,-19.527 0,-1.371 0.36,-2.031 1.1,-2.031 0.31,0 0.78,0.308 1.4,0.929 7.5,7.821 17.66,15.199 30.47,22.192 12.89,7.07 25.2,10.629 36.88,10.629 z" /><path
         id="path42"
         style="fill:#af2023;fill-opacity:1;fill-rule:nonzero;stroke:none"
         d="m 1901.13,623.828 c 0,-2.308 1.92,-3.437 5.78,-3.437 h 64.07 c 13.63,0 23.63,3.359 30,10.16 6.32,6.871 11.29,16.48 14.84,28.898 0.7,3.52 2.03,5.321 3.91,5.321 7.18,0 11.91,-1.961 14.22,-5.79 l -10.32,-58.121 H 1859.1 c -6.48,3.942 -9.69,7.692 -9.69,11.25 0,0.942 0.16,1.563 0.47,1.871 l 125.47,174.379 -72.81,0.469 c -6.49,0 -11.84,-1.558 -16.09,-4.687 -4.18,-3.051 -7.04,-6.211 -8.6,-9.532 -1.48,-3.238 -2.93,-7.418 -4.37,-12.5 -1.49,-5 -2.35,-7.968 -2.66,-8.91 -0.94,-1.988 -4.84,-2.969 -11.72,-2.969 -3.55,0 -5.31,0.508 -5.31,1.571 0,1.25 1.13,8.937 3.44,23.121 2.26,14.137 3.75,26.129 4.37,35.937 19.14,-1.988 34.61,-2.968 46.41,-2.968 h 59.53 c 18.2,0 38.05,1.289 59.53,3.91 1.02,-1.68 1.56,-5.59 1.56,-11.723 L 1904.57,630.699 c -2.3,-3.359 -3.44,-5.621 -3.44,-6.871 z" /><path
         id="path44"
         style="fill:#af2023;fill-opacity:1;fill-rule:nonzero;stroke:none"
         d="m 2162.34,814.77 c 31.25,0 55.71,-10.711 73.44,-32.04 17.81,-21.359 26.72,-44.058 26.72,-68.121 0,-30.937 -11.52,-58.129 -34.53,-81.558 -22.93,-23.442 -48.24,-35.16 -75.94,-35.16 -11.99,0 -23.44,1.058 -34.37,3.129 -10.94,2.179 -17.19,3.281 -18.75,3.281 -2.93,0 -6.64,-0.942 -11.1,-2.821 -4.37,-1.75 -6.87,-2.652 -7.5,-2.652 -1.25,0 -3.28,0.551 -6.09,1.563 -2.81,0.937 -4.22,2.07 -4.22,3.437 0,0.313 0.47,2.973 1.41,7.973 1.01,5.078 2.03,12.5 2.97,22.179 1.01,9.77 1.56,20.711 1.56,32.821 V 868.98 c 0,11.02 -1.02,21.45 -2.97,31.25 -1.56,5.2 -9.85,7.821 -24.85,7.821 h -4.37 c -1.99,0 -2.97,1.75 -2.97,5.308 0,5.192 0.98,7.813 2.97,7.813 9.69,0.937 18.67,2.226 27.03,3.906 8.32,1.641 14.84,3.281 19.53,4.844 4.69,1.637 8.64,3.199 11.88,4.687 3.32,1.442 5.82,2.661 7.5,3.59 l 1.87,1.571 h 0.94 c 1.33,0 2.66,-0.942 3.91,-2.821 1.32,-1.789 2.18,-3.429 2.5,-5 -3.56,-10.429 -5.32,-24.609 -5.32,-42.5 V 803.98 c 0,-3.55 0.47,-5.308 1.41,-5.308 0.31,0 0.78,0.156 1.41,0.469 4.57,3.199 11.56,6.597 20.93,10.16 9.46,3.629 17.82,5.469 25,5.469 z m -15.62,-23.911 c -9.06,0 -16.88,-2.578 -23.44,-7.66 -6.48,-5 -9.69,-12.258 -9.69,-21.719 V 647.73 c 0,-10.109 4.77,-17.5 14.38,-22.179 9.57,-4.692 20.7,-7.031 33.44,-7.031 18.51,0 33,8.75 43.43,26.25 10.39,17.57 15.63,37.5 15.63,59.679 0,25.629 -6.8,46.41 -20.31,62.352 -13.44,16.008 -31.25,24.058 -53.44,24.058 z" /><path
         id="path46"
         style="fill:#af2023;fill-opacity:1;fill-rule:nonzero;stroke:none"
         d="M 2493.83,767.422 V 669.77 c 0,-14.071 1.13,-26.489 3.44,-37.192 0.7,-2.308 2.53,-4.137 5.46,-5.469 2.89,-1.25 5.98,-2.031 9.22,-2.339 3.21,-0.321 6.49,-0.469 9.85,-0.469 l 4.37,-0.473 c 0.94,-0.308 1.41,-2.109 1.41,-5.308 0,-1.059 -0.43,-2.622 -1.25,-4.692 -0.86,-2.109 -1.72,-3.129 -2.66,-3.129 -4.92,-0.429 -10.39,-1.09 -16.4,-2.027 -5.94,-0.942 -11.53,-2.113 -16.72,-3.442 -5.24,-1.25 -10.12,-2.57 -14.69,-3.902 -4.61,-1.25 -8.2,-2.379 -10.78,-3.437 l -4.38,-0.942 c -2.61,0 -3.9,2.621 -3.9,7.821 v 24.839 l -0.94,2.5 c -21.56,-23.129 -42.93,-34.687 -64.06,-34.687 -12,0 -22.31,3.047 -30.94,9.058 -8.67,6.02 -15,13.989 -19.06,23.911 -4.07,9.879 -6.96,19.449 -8.6,28.75 -1.56,9.379 -2.34,19.058 -2.34,29.058 v 61.571 c 0,12.691 -2.31,21.48 -6.88,26.402 -3.24,3.828 -7.26,6.488 -12.03,7.969 -4.68,1.558 -8.59,2.339 -11.72,2.339 -3.04,0 -4.53,0.321 -4.53,0.942 0,7.808 0.94,11.879 2.82,12.187 34.57,5.192 57.07,9.411 67.5,12.661 0.31,0 0.78,0.031 1.4,0.152 0.63,0.199 0.94,0.308 0.94,0.308 1.33,0 2.19,-1.402 2.5,-4.21 0.31,-2.739 0.31,-4.692 0,-5.942 -1.99,-15.629 -2.97,-27.738 -2.97,-36.25 v -65.777 c 0,-25.121 3.75,-43.602 11.25,-55.473 7.5,-11.879 19.69,-17.808 36.56,-17.808 9.77,0 19.07,3.781 27.82,11.402 8.82,7.699 13.28,14.297 13.28,19.848 v 91.25 c 0,12.691 -2.31,21.48 -6.88,26.402 -3.24,3.828 -7.26,6.488 -12.03,7.969 -4.69,1.558 -8.59,2.339 -11.72,2.339 -3.05,0 -4.53,0.321 -4.53,0.942 0,7.808 0.98,11.879 2.97,12.187 34.45,5.192 56.91,9.411 67.34,12.661 0.32,0 0.78,0.031 1.41,0.152 0.7,0.199 1.09,0.308 1.09,0.308 1.25,0 2.03,-1.402 2.35,-4.21 0.31,-2.739 0.31,-4.692 0,-5.942 -2,-15.629 -2.97,-27.348 -2.97,-35.156 z" /><path
         id="path48"
         style="fill:#af2023;fill-opacity:1;fill-rule:nonzero;stroke:none"
         d="m 2627.7,814.301 c 7.18,0 16.17,-0.942 27.03,-2.821 10.93,-1.789 18.51,-2.96 22.81,-3.589 3.2,-15 5.16,-31.641 5.78,-49.84 0,-1.571 -2.11,-2.352 -6.25,-2.352 -4.61,0 -7.03,1.141 -7.34,3.442 -1.68,9.058 -6.37,17.66 -14.07,25.781 -7.61,8.129 -16.32,12.187 -26.09,12.187 -23.44,0 -35.16,-9.609 -35.16,-28.75 0,-4.918 0.63,-9.218 1.88,-12.968 1.33,-3.75 3.91,-7.34 7.66,-10.782 3.75,-3.359 6.6,-5.781 8.59,-7.339 1.95,-1.489 6.29,-4.071 12.97,-7.821 6.64,-3.668 10.82,-6.008 12.5,-7.027 1.25,-0.621 5.04,-2.813 11.4,-6.563 6.33,-3.75 10.82,-6.48 13.44,-8.129 2.58,-1.558 6.41,-4.332 11.41,-8.281 5.08,-3.859 8.79,-7.34 11.09,-10.469 2.27,-3.121 4.45,-7.031 6.56,-11.71 2.07,-4.692 3.13,-9.5 3.13,-14.379 0,-19.18 -7.5,-35.231 -22.5,-48.121 -14.92,-12.821 -32.46,-19.219 -52.66,-19.219 -6.87,0 -13.2,0.429 -18.9,1.25 -5.63,0.738 -12.35,2.109 -20.16,4.058 -7.81,1.95 -13.87,3.282 -18.12,3.911 -1.88,5.191 -3.75,13.32 -5.63,24.371 -1.8,11.129 -2.66,19.918 -2.66,26.41 2.58,1.949 4.57,2.969 5.94,2.969 4.88,0 7.5,-1.02 7.81,-2.969 1.88,-9.813 7.89,-19.34 18.13,-28.602 10.31,-9.289 21.48,-13.898 33.59,-13.898 10.39,0 18.95,2.847 25.63,8.59 6.64,5.699 10,13.949 10,24.687 0,5.512 -1.1,10.621 -3.28,15.313 -2.11,4.687 -5.47,8.91 -10.16,12.66 -4.69,3.75 -9.06,6.789 -13.12,9.219 -4.07,2.5 -9.85,5.66 -17.35,9.531 -7.5,3.937 -13.05,7.07 -16.56,9.371 -25.43,14.687 -38.13,32.066 -38.13,52.187 0,17.582 7.07,31.911 21.25,42.969 14.14,11.133 30.67,16.723 49.54,16.723 z" /><path
         id="path50"
         style="fill:#af2023;fill-opacity:1;fill-rule:nonzero;stroke:none"
         d="m 1625.39,445.98 c 2.58,0 5.86,-0.39 9.84,-1.101 3.95,-0.617 6.65,-1.051 8.13,-1.25 1.25,-5.43 1.95,-11.399 2.19,-17.969 0,-0.539 -0.78,-0.781 -2.35,-0.781 -1.56,0 -2.46,0.351 -2.65,1.101 -0.55,3.321 -2.19,6.442 -5,9.372 -2.74,2.886 -5.86,4.378 -9.38,4.378 -8.44,0 -12.65,-3.441 -12.65,-10.32 0,-1.789 0.19,-3.359 0.62,-4.68 0.51,-1.371 1.45,-2.66 2.81,-3.91 1.33,-1.25 2.35,-2.148 2.97,-2.66 0.7,-0.539 2.27,-1.48 4.69,-2.808 2.38,-1.372 3.91,-2.192 4.53,-2.5 0.51,-0.231 1.91,-1.012 4.22,-2.34 2.26,-1.371 3.91,-2.352 4.84,-2.973 0.94,-0.629 2.27,-1.68 4.07,-3.129 1.87,-1.359 3.16,-2.609 3.9,-3.75 0.82,-1.051 1.6,-2.461 2.35,-4.211 0.82,-1.679 1.25,-3.398 1.25,-5.16 0,-6.879 -2.74,-12.66 -8.13,-17.34 -5.43,-4.609 -11.8,-6.879 -19.06,-6.879 -2.42,0 -4.65,0.16 -6.72,0.469 -2.11,0.231 -4.53,0.699 -7.34,1.41 -2.82,0.699 -5,1.172 -6.57,1.403 -0.62,1.878 -1.33,4.769 -2.03,8.75 -0.62,4.058 -0.94,7.226 -0.94,9.527 0.94,0.711 1.64,1.101 2.19,1.101 1.76,0 2.7,-0.39 2.81,-1.101 0.71,-3.551 2.9,-6.988 6.57,-10.309 3.75,-3.359 7.73,-5 12.03,-5 3.75,0 6.8,1.02 9.22,3.129 2.5,2.071 3.75,5.031 3.75,8.903 0,1.949 -0.43,3.789 -1.25,5.468 -0.75,1.758 -2,3.321 -3.75,4.692 -1.68,1.328 -3.25,2.418 -4.69,3.277 -1.48,0.941 -3.56,2.07 -6.25,3.441 -2.73,1.442 -4.69,2.571 -5.94,3.43 -9.18,5.199 -13.75,11.449 -13.75,18.75 0,6.328 2.54,11.488 7.66,15.469 5.08,4.07 11.01,6.101 17.81,6.101 z m 86.29,0.149 c 4.69,0 8.59,-1.25 11.72,-3.75 3.12,-2.5 5.23,-5.43 6.4,-8.75 8.83,8.32 17.97,12.5 27.35,12.5 14.76,0 22.19,-11.328 22.19,-33.899 v -19.531 c 0,-6.801 0.46,-12 1.4,-15.629 0.2,-0.859 1.72,-1.679 4.53,-2.5 2.82,-0.742 4.85,-1.09 6.1,-1.09 0.31,0 0.51,-0.75 0.62,-2.191 0.08,-1.367 0.04,-2.309 -0.15,-2.809 -11.8,0.5 -18.09,0.782 -18.91,0.782 -0.63,0 -6.99,-0.282 -19.06,-0.782 -0.55,0.43 -0.78,1.321 -0.78,2.809 0,1.441 0.23,2.191 0.78,2.191 1.33,0 3.36,0.348 6.09,1.09 2.81,0.821 4.3,1.641 4.53,2.5 0.82,3.442 1.25,7.192 1.25,11.25 v 20 c 0,18.008 -5.94,27.032 -17.81,27.032 -4.3,0 -8.05,-1.25 -11.25,-3.75 -3.13,-2.5 -4.69,-4.614 -4.69,-6.25 l 0.16,-0.782 c 0,-0.429 0,-0.699 0,-0.781 0.39,-2.93 0.62,-7.148 0.62,-12.66 v -20 c 0,-5.738 0.47,-10.43 1.41,-14.059 0.31,-0.859 1.87,-1.679 4.69,-2.5 2.81,-0.742 4.76,-1.09 5.93,-1.09 0.32,0 0.51,-0.75 0.63,-2.191 0.19,-1.367 0.16,-2.309 -0.16,-2.809 -11.68,0.5 -17.93,0.782 -18.75,0.782 -0.74,0 -7.14,-0.282 -19.22,-0.782 -0.54,0.43 -0.78,1.321 -0.78,2.809 0,1.441 0.24,2.191 0.78,2.191 1.33,0 3.36,0.348 6.1,1.09 2.81,0.821 4.37,1.641 4.69,2.5 0.7,3.442 1.09,7.539 1.09,12.34 v 17.969 c 0,18.641 -5.63,27.973 -16.88,27.973 -3.55,0 -7.1,-1.372 -10.62,-4.063 -3.56,-2.617 -5.31,-5.117 -5.31,-7.5 v -31.09 c 0,-6.801 0.47,-12 1.4,-15.629 0.2,-0.859 1.72,-1.679 4.53,-2.5 2.82,-0.742 4.77,-1.09 5.94,-1.09 0.39,0 0.67,-0.75 0.78,-2.191 0.08,-1.367 0.04,-2.309 -0.15,-2.809 -11.8,0.5 -18.09,0.782 -18.91,0.782 -0.74,0 -7.15,-0.282 -19.22,-0.782 -0.54,0.43 -0.78,1.321 -0.78,2.809 0,1.441 0.24,2.191 0.78,2.191 1.45,0 3.52,0.348 6.25,1.09 2.81,0.821 4.3,1.641 4.53,2.5 0.82,3.442 1.25,7.539 1.25,12.34 v 33.289 c 0,4.571 -0.86,7.731 -2.5,9.531 -1.17,1.321 -2.61,2.258 -4.37,2.809 -1.68,0.621 -3.09,0.941 -4.22,0.941 -1.17,0 -1.72,0.071 -1.72,0.309 0,2.813 0.35,4.262 1.09,4.371 12.5,1.879 20.63,3.36 24.38,4.539 0.08,0 0.23,0.031 0.47,0.153 0.31,0.078 0.47,0.16 0.47,0.16 0.39,0 0.66,-0.551 0.78,-1.563 0.08,-1.058 0.08,-1.801 0,-2.187 -0.43,-3.364 -0.63,-5.711 -0.63,-7.032 0,-0.55 0.08,-0.781 0.32,-0.781 0.07,0 0.23,0.071 0.46,0.313 2.7,2.886 6.33,5.617 10.94,8.117 4.69,2.5 9.14,3.75 13.44,3.75 z" /><path
         id="path52"
         style="fill:#af2023;fill-opacity:1;fill-rule:nonzero;stroke:none"
         d="m 1821.02,380.199 c 1.95,-1.679 4.53,-2.5 7.65,-2.5 3.21,0 6.29,0.973 9.22,2.961 2.89,1.961 4.38,3.949 4.38,5.942 v 18.128 c -0.94,-0.55 -3.25,-1.371 -6.88,-2.5 -3.67,-1.179 -6.52,-2.191 -8.59,-3.128 -2,-0.864 -3.99,-2.301 -5.94,-4.372 -1.88,-2 -2.81,-4.339 -2.81,-7.031 0,-3.25 0.97,-5.75 2.97,-7.5 z m 16.56,65.621 c 6.44,0 11.09,-1.558 13.9,-4.691 2.82,-3.117 4.22,-8.199 4.22,-15.149 v -40.628 c 0,-2.5 0.63,-4.614 1.88,-6.25 1.33,-1.563 3.12,-2.34 5.31,-2.34 1.64,0 3.75,0.777 6.25,2.34 0.39,0 0.63,-0.473 0.63,-1.403 0,-1.488 -0.28,-2.66 -0.79,-3.597 -4.92,-4.18 -9.02,-6.25 -12.34,-6.25 -2.73,0 -5.31,1.097 -7.81,3.277 -2.5,2.269 -4.22,4.691 -5.16,7.191 -0.12,0 -0.55,-0.429 -1.25,-1.25 -0.74,-0.742 -1.8,-1.64 -3.12,-2.66 -1.25,-0.93 -2.78,-1.949 -4.53,-2.961 -1.68,-1.058 -3.68,-1.961 -5.94,-2.66 -2.31,-0.699 -4.61,-1.09 -6.88,-1.09 -5.43,0 -9.92,1.403 -13.43,4.211 -3.56,2.891 -5.32,7.27 -5.32,13.129 0,2.5 0.63,4.883 1.88,7.191 1.33,2.258 2.89,4.141 4.69,5.622 1.75,1.558 4.14,3.046 7.18,4.527 3.01,1.57 5.63,2.699 7.82,3.441 2.18,0.821 5.03,1.801 8.59,2.969 3.52,1.133 5.98,2.031 7.34,2.66 1.02,0.313 1.57,1.172 1.57,2.653 v 13.128 c 0,3.75 -1.22,6.641 -3.6,8.75 -2.3,2.071 -5.08,3.122 -8.28,3.122 -3.55,0 -6.52,-1.211 -8.91,-3.59 -2.3,-2.422 -3.43,-5.59 -3.43,-9.532 0,-4.07 -2.46,-6.101 -7.35,-6.101 -3.24,0 -5.47,1.101 -6.72,3.281 0,5.078 3.68,10.16 11.1,15.16 7.38,5 14.88,7.5 22.5,7.5 z" /><path
         id="path54"
         style="fill:#af2023;fill-opacity:1;fill-rule:nonzero;stroke:none"
         d="m 1922.62,445.98 c 6.95,0 11.56,-1.718 13.75,-5.16 0,-4.058 -0.63,-7.031 -1.88,-8.91 -1.25,-1.871 -2.81,-2.808 -4.69,-2.808 -2.18,0 -4.18,0.976 -5.93,2.968 -1.8,1.95 -4.18,2.969 -7.19,2.969 -3.67,0 -6.84,-1.719 -9.53,-5.16 -2.74,-3.359 -4.06,-6.949 -4.06,-10.777 v -26.403 c 0,-6.801 0.46,-12 1.4,-15.629 0.31,-0.859 1.88,-1.679 4.69,-2.5 2.89,-0.742 4.92,-1.09 6.09,-1.09 0.32,0 0.51,-0.75 0.63,-2.191 0.19,-1.367 0.15,-2.309 -0.16,-2.809 -11.68,0.5 -17.97,0.782 -18.9,0.782 -0.75,0 -7.15,-0.282 -19.22,-0.782 -0.55,0.43 -0.78,1.321 -0.78,2.809 0,1.441 0.23,2.191 0.78,2.191 1.33,0 3.36,0.348 6.09,1.09 2.81,0.821 4.38,1.641 4.69,2.5 0.7,3.442 1.09,7.539 1.09,12.34 v 33.289 c 0,4.571 -0.78,7.731 -2.34,9.531 -1.25,1.321 -2.74,2.258 -4.38,2.809 -1.68,0.621 -3.08,0.941 -4.22,0.941 -1.17,0 -1.71,0.071 -1.71,0.309 0,2.813 0.35,4.262 1.09,4.371 12.5,1.879 20.62,3.36 24.37,4.539 0.08,0 0.24,0.031 0.47,0.153 0.2,0.078 0.32,0.16 0.32,0.16 0.5,0 0.82,-0.551 0.93,-1.563 0.08,-1.058 0.08,-1.801 0,-2.187 l -1.09,-8.91 c 2.07,3.199 5,6.168 8.75,8.91 3.75,2.808 7.38,4.218 10.94,4.218 z" /><path
         id="path56"
         style="fill:#af2023;fill-opacity:1;fill-rule:nonzero;stroke:none"
         d="m 1952.11,434.879 h -10.16 c -0.62,0 -0.93,1.25 -0.93,3.75 0,0.633 0.03,0.98 0.15,1.101 3.44,1.559 7.11,4.68 11.1,9.372 1.32,1.558 2.57,3.277 3.75,5.16 1.25,1.949 2.26,3.629 3.12,5 0.82,1.437 1.25,2.218 1.25,2.34 3.52,0 5.31,-0.274 5.31,-0.782 v -17.5 c 3.01,0 7.66,-0.082 13.91,-0.16 6.25,0 9.53,0 9.84,0 0.94,0 1.41,-0.539 1.41,-1.558 0,-2.192 -0.59,-4.454 -1.72,-6.723 h -23.44 v -43.117 c 0,-4.813 1.18,-8.602 3.6,-11.41 2.38,-2.813 5.54,-4.223 9.53,-4.223 3.44,0 7.03,1.141 10.78,3.441 0.39,0.2 0.94,-0.308 1.56,-1.558 0.71,-1.25 1.02,-1.961 0.94,-2.032 -1.8,-1.878 -4.49,-3.75 -8.13,-5.628 -3.67,-1.762 -7.42,-2.653 -11.25,-2.653 -5.85,0 -10.74,1.91 -14.68,5.781 -3.99,3.942 -5.94,9.45 -5.94,16.559 z" /><path
         id="path58"
         style="fill:#af2023;fill-opacity:1;fill-rule:nonzero;stroke:none"
         d="m 2058.67,380.199 c 1.95,-1.679 4.53,-2.5 7.66,-2.5 3.2,0 6.29,0.973 9.22,2.961 2.89,1.961 4.37,3.949 4.37,5.942 v 18.128 c -0.94,-0.55 -3.24,-1.371 -6.87,-2.5 -3.67,-1.179 -6.53,-2.191 -8.6,-3.128 -1.99,-0.864 -3.98,-2.301 -5.93,-4.372 -1.88,-2 -2.82,-4.339 -2.82,-7.031 0,-3.25 0.98,-5.75 2.97,-7.5 z m 16.56,65.621 c 6.45,0 11.1,-1.558 13.91,-4.691 2.81,-3.117 4.22,-8.199 4.22,-15.149 v -40.628 c 0,-2.5 0.62,-4.614 1.87,-6.25 1.33,-1.563 3.13,-2.34 5.32,-2.34 1.64,0 3.75,0.777 6.25,2.34 0.39,0 0.62,-0.473 0.62,-1.403 0,-1.488 -0.27,-2.66 -0.78,-3.597 -4.92,-4.18 -9.02,-6.25 -12.34,-6.25 -2.74,0 -5.32,1.097 -7.82,3.277 -2.5,2.269 -4.21,4.691 -5.15,7.191 -0.12,0 -0.55,-0.429 -1.25,-1.25 -0.74,-0.742 -1.8,-1.64 -3.13,-2.66 -1.25,-0.93 -2.77,-1.949 -4.53,-2.961 -1.68,-1.058 -3.67,-1.961 -5.94,-2.66 -2.3,-0.699 -4.6,-1.09 -6.87,-1.09 -5.43,0 -9.92,1.403 -13.44,4.211 -3.55,2.891 -5.31,7.27 -5.31,13.129 0,2.5 0.62,4.883 1.87,7.191 1.33,2.258 2.89,4.141 4.69,5.622 1.76,1.558 4.14,3.046 7.19,4.527 3.01,1.57 5.62,2.699 7.81,3.441 2.19,0.821 5.04,1.801 8.6,2.969 3.51,1.133 5.97,2.031 7.34,2.66 1.02,0.313 1.56,1.172 1.56,2.653 v 13.128 c 0,3.75 -1.21,6.641 -3.59,8.75 -2.31,2.071 -5.08,3.122 -8.28,3.122 -3.56,0 -6.53,-1.211 -8.91,-3.59 -2.3,-2.422 -3.44,-5.59 -3.44,-9.532 0,-4.07 -2.46,-6.101 -7.34,-6.101 -3.24,0 -5.47,1.101 -6.72,3.281 0,5.078 3.67,10.16 11.09,15.16 7.39,5 14.89,7.5 22.5,7.5 z" /><path
         id="path60"
         style="fill:#af2023;fill-opacity:1;fill-rule:nonzero;stroke:none"
         d="m 2160.27,445.98 c 6.96,0 11.57,-1.718 13.75,-5.16 0,-4.058 -0.62,-7.031 -1.87,-8.91 -1.25,-1.871 -2.81,-2.808 -4.69,-2.808 -2.19,0 -4.18,0.976 -5.94,2.968 -1.79,1.95 -4.18,2.969 -7.18,2.969 -3.68,0 -6.84,-1.719 -9.54,-5.16 -2.73,-3.359 -4.06,-6.949 -4.06,-10.777 v -26.403 c 0,-6.801 0.47,-12 1.41,-15.629 0.31,-0.859 1.87,-1.679 4.69,-2.5 2.89,-0.742 4.92,-1.09 6.09,-1.09 0.31,0 0.51,-0.75 0.62,-2.191 0.2,-1.367 0.16,-2.309 -0.15,-2.809 -11.68,0.5 -17.97,0.782 -18.91,0.782 -0.74,0 -7.15,-0.282 -19.22,-0.782 -0.54,0.43 -0.78,1.321 -0.78,2.809 0,1.441 0.24,2.191 0.78,2.191 1.33,0 3.36,0.348 6.1,1.09 2.81,0.821 4.37,1.641 4.68,2.5 0.71,3.442 1.1,7.539 1.1,12.34 v 33.289 c 0,4.571 -0.78,7.731 -2.35,9.531 -1.25,1.321 -2.73,2.258 -4.37,2.809 -1.68,0.621 -3.09,0.941 -4.22,0.941 -1.17,0 -1.72,0.071 -1.72,0.309 0,2.813 0.35,4.262 1.1,4.371 12.5,1.879 20.62,3.36 24.37,4.539 0.08,0 0.24,0.031 0.47,0.153 0.19,0.078 0.31,0.16 0.31,0.16 0.51,0 0.82,-0.551 0.94,-1.563 0.08,-1.058 0.08,-1.801 0,-2.187 l -1.09,-8.91 c 2.07,3.199 5,6.168 8.75,8.91 3.75,2.808 7.38,4.218 10.93,4.218 z" /><path
         id="path62"
         style="fill:#af2023;fill-opacity:1;fill-rule:nonzero;stroke:none"
         d="m 2227.3,445.98 c 6.96,0 11.57,-1.718 13.75,-5.16 0,-4.058 -0.62,-7.031 -1.87,-8.91 -1.25,-1.871 -2.81,-2.808 -4.69,-2.808 -2.19,0 -4.18,0.976 -5.94,2.968 -1.79,1.95 -4.17,2.969 -7.18,2.969 -3.67,0 -6.84,-1.719 -9.53,-5.16 -2.74,-3.359 -4.07,-6.949 -4.07,-10.777 v -26.403 c 0,-6.801 0.47,-12 1.41,-15.629 0.31,-0.859 1.87,-1.679 4.69,-2.5 2.89,-0.742 4.92,-1.09 6.09,-1.09 0.31,0 0.51,-0.75 0.63,-2.191 0.19,-1.367 0.15,-2.309 -0.16,-2.809 -11.68,0.5 -17.97,0.782 -18.91,0.782 -0.74,0 -7.14,-0.282 -19.22,-0.782 -0.54,0.43 -0.78,1.321 -0.78,2.809 0,1.441 0.24,2.191 0.78,2.191 1.33,0 3.36,0.348 6.1,1.09 2.81,0.821 4.37,1.641 4.69,2.5 0.7,3.442 1.09,7.539 1.09,12.34 v 33.289 c 0,4.571 -0.78,7.731 -2.34,9.531 -1.25,1.321 -2.74,2.258 -4.38,2.809 -1.68,0.621 -3.08,0.941 -4.22,0.941 -1.17,0 -1.72,0.071 -1.72,0.309 0,2.813 0.36,4.262 1.1,4.371 12.5,1.879 20.62,3.36 24.37,4.539 0.08,0 0.24,0.031 0.47,0.153 0.2,0.078 0.31,0.16 0.31,0.16 0.51,0 0.82,-0.551 0.94,-1.563 0.08,-1.058 0.08,-1.801 0,-2.187 l -1.09,-8.91 c 2.07,3.199 5,6.168 8.75,8.91 3.75,2.808 7.38,4.218 10.93,4.218 z" /><path
         id="path64"
         style="fill:#af2023;fill-opacity:1;fill-rule:nonzero;stroke:none"
         d="m 2260.23,467.07 c -1.68,1.758 -2.5,3.91 -2.5,6.41 0,2.5 0.82,4.571 2.5,6.25 1.76,1.641 3.83,2.5 6.25,2.5 2.5,0 4.57,-0.859 6.25,-2.5 1.76,-1.679 2.66,-3.75 2.66,-6.25 0,-2.5 -0.9,-4.652 -2.66,-6.41 -1.68,-1.679 -3.75,-2.5 -6.25,-2.5 -2.42,0 -4.49,0.821 -6.25,2.5 z m 14.38,-74.371 c 0,-6.801 0.47,-12 1.41,-15.629 0.19,-0.859 1.71,-1.679 4.53,-2.5 2.89,-0.742 4.92,-1.09 6.09,-1.09 0.31,0 0.51,-0.75 0.63,-2.191 0.07,-1.367 0.03,-2.309 -0.16,-2.809 -11.8,0.5 -18.09,0.782 -18.91,0.782 -0.74,0 -7.11,-0.282 -19.06,-0.782 -0.55,0.43 -0.78,1.321 -0.78,2.809 0,1.441 0.23,2.191 0.78,2.191 1.33,0 3.36,0.348 6.09,1.09 2.82,0.821 4.3,1.641 4.54,2.5 0.82,3.442 1.25,7.539 1.25,12.34 v 33.289 c 0,4.571 -0.79,7.731 -2.35,9.531 -1.25,1.321 -2.73,2.258 -4.37,2.809 -1.68,0.621 -3.09,0.941 -4.22,0.941 -1.17,0 -1.72,0.071 -1.72,0.309 0,2.813 0.35,4.262 1.09,4.371 12.39,1.879 20.51,3.36 24.38,4.539 l 0.31,0.313 c 0.2,0 0.35,0 0.47,0 0.51,0 0.82,-0.551 0.94,-1.563 0.07,-1.058 0.07,-1.801 0,-2.187 -0.63,-4.692 -0.94,-8.91 -0.94,-12.66 z" /><path
         id="path66"
         style="fill:#af2023;fill-opacity:1;fill-rule:nonzero;stroke:none"
         d="m 2357.81,434.73 c 0,3.75 -4.22,5.622 -12.65,5.622 -0.55,0 -0.78,0.699 -0.78,2.187 0,1.441 0.23,2.422 0.78,2.973 1.25,-0.242 3.63,-0.434 7.18,-0.633 3.52,-0.231 6.72,-0.309 9.54,-0.309 l 17.65,0.942 c 0.2,-0.742 0.31,-1.641 0.31,-2.66 0,-1.68 -0.43,-2.5 -1.25,-2.5 -1.68,0 -3.86,-0.473 -6.56,-1.403 -2.73,-0.937 -4.53,-2.5 -5.47,-4.687 l -27.97,-63.133 c -0.23,-0.859 -0.93,-1.719 -2.18,-2.649 -1.18,-0.941 -2.15,-1.41 -2.97,-1.41 -0.86,0 -1.37,0.231 -1.56,0.629 -2,4.371 -6.37,14.449 -13.13,30.313 -6.8,15.816 -12.66,28.75 -17.66,38.75 -1.17,2.379 -4.64,3.59 -10.47,3.59 -0.39,0 -0.62,0.699 -0.62,2.187 0,1.441 0.23,2.422 0.62,2.973 12.08,-0.633 18.21,-0.942 18.44,-0.942 l 17.5,0.942 c 0.32,-0.551 0.35,-1.532 0.16,-2.973 -0.24,-1.488 -0.47,-2.187 -0.78,-2.187 -5.74,0 -8.6,-1.012 -8.6,-2.973 0,-0.309 0.04,-0.578 0.16,-0.777 l 21.09,-47.813 17.82,40.621 c 0.93,2.192 1.4,3.949 1.4,5.32 z" /><path
         id="path68"
         style="fill:#af2023;fill-opacity:1;fill-rule:nonzero;stroke:none"
         d="m 2402.11,380.199 c 1.95,-1.679 4.53,-2.5 7.66,-2.5 3.2,0 6.28,0.973 9.21,2.961 2.9,1.961 4.38,3.949 4.38,5.942 v 18.128 c -0.94,-0.55 -3.24,-1.371 -6.88,-2.5 -3.67,-1.179 -6.52,-2.191 -8.59,-3.128 -1.99,-0.864 -3.98,-2.301 -5.94,-4.372 -1.87,-2 -2.81,-4.339 -2.81,-7.031 0,-3.25 0.98,-5.75 2.97,-7.5 z m 16.56,65.621 c 6.45,0 11.1,-1.558 13.91,-4.691 2.81,-3.117 4.22,-8.199 4.22,-15.149 v -40.628 c 0,-2.5 0.62,-4.614 1.87,-6.25 1.33,-1.563 3.13,-2.34 5.31,-2.34 1.64,0 3.75,0.777 6.25,2.34 0.39,0 0.63,-0.473 0.63,-1.403 0,-1.488 -0.27,-2.66 -0.78,-3.597 -4.92,-4.18 -9.03,-6.25 -12.35,-6.25 -2.73,0 -5.31,1.097 -7.81,3.277 -2.5,2.269 -4.22,4.691 -5.15,7.191 -0.12,0 -0.55,-0.429 -1.25,-1.25 -0.75,-0.742 -1.8,-1.64 -3.13,-2.66 -1.25,-0.93 -2.77,-1.949 -4.53,-2.961 -1.68,-1.058 -3.67,-1.961 -5.94,-2.66 -2.3,-0.699 -4.61,-1.09 -6.87,-1.09 -5.43,0 -9.93,1.403 -13.44,4.211 -3.56,2.891 -5.31,7.27 -5.31,13.129 0,2.5 0.62,4.883 1.87,7.191 1.33,2.258 2.89,4.141 4.69,5.622 1.76,1.558 4.14,3.046 7.19,4.527 3,1.57 5.62,2.699 7.81,3.441 2.19,0.821 5.04,1.801 8.59,2.969 3.52,1.133 5.98,2.031 7.35,2.66 1.01,0.313 1.56,1.172 1.56,2.653 v 13.128 c 0,3.75 -1.21,6.641 -3.59,8.75 -2.31,2.071 -5.08,3.122 -8.29,3.122 -3.55,0 -6.52,-1.211 -8.9,-3.59 -2.31,-2.422 -3.44,-5.59 -3.44,-9.532 0,-4.07 -2.46,-6.101 -7.34,-6.101 -3.25,0 -5.47,1.101 -6.72,3.281 0,5.078 3.67,10.16 11.09,15.16 7.38,5 14.88,7.5 22.5,7.5 z" /><path
         id="path70"
         style="fill:#af2023;fill-opacity:1;fill-rule:nonzero;stroke:none"
         d="m 2467.5,389.41 v 76.25 c 0,4.07 -0.39,7.82 -1.09,11.25 -0.55,1.879 -3.52,2.82 -8.91,2.82 h -1.56 c -0.74,0 -1.1,0.661 -1.1,2.032 0,1.867 0.36,2.808 1.1,2.808 3.51,0.309 6.76,0.782 9.68,1.41 3.01,0.622 5.36,1.168 7.04,1.719 1.75,0.621 3.2,1.172 4.37,1.711 1.13,0.512 2.03,0.942 2.66,1.25 l 0.62,0.629 h 0.47 c 0.39,0 0.82,-0.391 1.25,-1.09 0.51,-0.629 0.82,-1.219 0.94,-1.719 -1.25,-3.75 -1.88,-8.871 -1.88,-15.32 v -80.461 c 0,-6.801 0.47,-12 1.41,-15.629 0.2,-0.859 1.72,-1.679 4.53,-2.5 2.81,-0.742 4.85,-1.09 6.09,-1.09 0.32,0 0.51,-0.75 0.63,-2.191 0.08,-1.367 0.04,-2.309 -0.16,-2.809 -11.79,0.5 -18.08,0.782 -18.9,0.782 -0.63,0 -7.03,-0.282 -19.22,-0.782 -0.43,0.43 -0.63,1.321 -0.63,2.809 0,1.441 0.2,2.191 0.63,2.191 1.44,0 3.51,0.348 6.25,1.09 2.81,0.821 4.3,1.641 4.53,2.5 0.82,3.442 1.25,7.539 1.25,12.34 z" /></g></g></svg>